<svg height="512" viewBox="0 0 64 64" width="512" xmlns="http://www.w3.org/2000/svg"><g id="Captions"><g><g><g><path d="m8 8h48v38h-48z" fill="#a00028"/></g><g><path d="m51 42h-38c-.552 0-1-.448-1-1v-28c0-.552.448-1 1-1h38c.552 0 1 .448 1 1v28c0 .552-.448 1-1 1z" fill="#dc9600"/></g><g><path d="m26 12h12v16h-12z" fill="#fab400"/></g><g><path d="m26 12h1v16h-1z" fill="#be7800"/></g><g><path d="m37 12h1v16h-1z" fill="#be7800"/></g><g><circle cx="32" cy="27" fill="#0082aa" r="10"/></g><g><path d="m12 18v-5c0-.552.448-1 1-1h5c0 3.314-2.686 6-6 6z" fill="#0082aa"/></g><g><path d="m12 36v5c0 .552.448 1 1 1h5c0-3.314-2.686-6-6-6z" fill="#0082aa"/></g><g><path d="m52 36v5c0 .552-.448 1-1 1h-5c0-3.314 2.686-6 6-6z" fill="#0082aa"/></g><g><path d="m52 18v-5c0-.552-.448-1-1-1h-5c0 3.314 2.686 6 6 6z" fill="#0082aa"/></g><g><path d="m42 31h-20c-2.209 0-4-1.791-4-4 0-2.209 1.791-4 4-4h20c2.209 0 4 1.791 4 4 0 2.209-1.791 4-4 4z" fill="#0082aa"/></g><g><path d="m38 19c-1.671-1.255-3.749-2-6-2s-4.329.744-6 2v9h12z" fill="#00a0c8"/></g><g><g><path d="m37 28h1v-9c-.319-.24-.653-.461-1-.661z" fill="#00648c"/></g><g><path d="m26 19v9h1v-9.662c-.347.201-.681.422-1 .662z" fill="#00648c"/></g></g></g><g><g><path d="m5 10h3v-2h-3c-.552 0-1 .448-1 1 0 .552.448 1 1 1z" fill="#00a0c8"/></g><g><path d="m5 14h3v-2h-3c-.552 0-1 .448-1 1 0 .552.448 1 1 1z" fill="#00a0c8"/></g><g><path d="m5 18h3v-2h-3c-.552 0-1 .448-1 1 0 .552.448 1 1 1z" fill="#00a0c8"/></g><g><path d="m5 22h3v-2h-3c-.552 0-1 .448-1 1 0 .552.448 1 1 1z" fill="#00a0c8"/></g><g><path d="m5 26h3v-2h-3c-.552 0-1 .448-1 1 0 .552.448 1 1 1z" fill="#00a0c8"/></g><g><path d="m5 30h3v-2h-3c-.552 0-1 .448-1 1 0 .552.448 1 1 1z" fill="#00a0c8"/></g><g><path d="m5 34h3v-2h-3c-.552 0-1 .448-1 1 0 .552.448 1 1 1z" fill="#00a0c8"/></g><g><path d="m5 38h3v-2h-3c-.552 0-1 .448-1 1 0 .552.448 1 1 1z" fill="#00a0c8"/></g><g><path d="m5 42h3v-2h-3c-.552 0-1 .448-1 1 0 .552.448 1 1 1z" fill="#00a0c8"/></g><g><path d="m5 46h3v-2h-3c-.552 0-1 .448-1 1 0 .552.448 1 1 1z" fill="#00a0c8"/></g><g><path d="m7 8h1v2h-1z" fill="#0082aa"/></g><g><path d="m7 12h1v2h-1z" fill="#0082aa"/></g><g><path d="m7 16h1v2h-1z" fill="#0082aa"/></g><g><path d="m7 20h1v2h-1z" fill="#0082aa"/></g><g><path d="m7 24h1v2h-1z" fill="#0082aa"/></g><g><path d="m7 28h1v2h-1z" fill="#0082aa"/></g><g><path d="m7 32h1v2h-1z" fill="#0082aa"/></g><g><path d="m7 36h1v2h-1z" fill="#0082aa"/></g><g><path d="m7 40h1v2h-1z" fill="#0082aa"/></g><g><path d="m7 44h1v2h-1z" fill="#0082aa"/></g></g><g><g><path d="m59 44h-3v2h3c.552 0 1-.448 1-1 0-.552-.448-1-1-1z" fill="#00a0c8"/></g><g><path d="m59 40h-3v2h3c.552 0 1-.448 1-1 0-.552-.448-1-1-1z" fill="#00a0c8"/></g><g><path d="m59 36h-3v2h3c.552 0 1-.448 1-1 0-.552-.448-1-1-1z" fill="#00a0c8"/></g><g><path d="m59 32h-3v2h3c.552 0 1-.448 1-1 0-.552-.448-1-1-1z" fill="#00a0c8"/></g><g><path d="m59 28h-3v2h3c.552 0 1-.448 1-1 0-.552-.448-1-1-1z" fill="#00a0c8"/></g><g><path d="m59 24h-3v2h3c.552 0 1-.448 1-1 0-.552-.448-1-1-1z" fill="#00a0c8"/></g><g><path d="m59 20h-3v2h3c.552 0 1-.448 1-1 0-.552-.448-1-1-1z" fill="#00a0c8"/></g><g><path d="m59 16h-3v2h3c.552 0 1-.448 1-1 0-.552-.448-1-1-1z" fill="#00a0c8"/></g><g><path d="m59 12h-3v2h3c.552 0 1-.448 1-1 0-.552-.448-1-1-1z" fill="#00a0c8"/></g><g><path d="m59 8h-3v2h3c.552 0 1-.448 1-1 0-.552-.448-1-1-1z" fill="#00a0c8"/></g><g><path d="m56 44h1v2h-1z" fill="#0082aa" transform="matrix(-1 0 0 -1 113 90)"/></g><g><path d="m56 40h1v2h-1z" fill="#0082aa" transform="matrix(-1 0 0 -1 113 82)"/></g><g><path d="m56 36h1v2h-1z" fill="#0082aa" transform="matrix(-1 0 0 -1 113 74)"/></g><g><path d="m56 32h1v2h-1z" fill="#0082aa" transform="matrix(-1 0 0 -1 113 66)"/></g><g><path d="m56 28h1v2h-1z" fill="#0082aa" transform="matrix(-1 0 0 -1 113 58)"/></g><g><path d="m56 24h1v2h-1z" fill="#0082aa" transform="matrix(-1 0 0 -1 113 50)"/></g><g><path d="m56 20h1v2h-1z" fill="#0082aa" transform="matrix(-1 0 0 -1 113 42)"/></g><g><path d="m56 16h1v2h-1z" fill="#0082aa" transform="matrix(-1 0 0 -1 113 34)"/></g><g><path d="m56 12h1v2h-1z" fill="#0082aa" transform="matrix(-1 0 0 -1 113 26)"/></g><g><path d="m56 8h1v2h-1z" fill="#0082aa" transform="matrix(-1 0 0 -1 113 18)"/></g></g><g><path d="m39 28v.82c0 .78-.18 1.54-.53 2.24l-2.57 5.15h-.01c-1.19.51-2.51.79-3.89.79-.53 0-1.05-.04-1.56-.13l-2.91-5.81c-.35-.7-.53-1.46-.53-2.24v-.82z" fill="#00648c"/></g><g><path d="m35.89 36.21-.89 1.79v4h-4v-4l-.56-1.13c.51.09 1.03.13 1.56.13 1.38 0 2.7-.28 3.89-.79z" fill="#be7800"/></g><g><path d="m31 42h4v4h-4z" fill="#82000a"/></g><g><g><path d="m26 28v.82c0 .776.181 1.542.528 2.236l3.472 6.944v4h4v-4l3.472-6.944c.347-.695.528-1.46.528-2.236v-.82z" fill="#a00028"/></g><g><path d="m30 38h4v22h-4z" fill="#0a5078"/></g><g><path d="m30 42h4v1h-4z" fill="#00325a"/></g><g><path d="m32 34c-1.105 0-2 .895-2 2v6h4v-6c0-1.105-.895-2-2-2z" fill="#c80a50"/></g></g><g><path d="m26 8h12v4h-12z" fill="#c80a50"/></g><g><path d="m26 8h1v4h-1z" fill="#82000a"/></g><g><path d="m37 8h1v4h-1z" fill="#82000a"/></g><g><g><path d="m42 8h-2v-2c0-.552.448-1 1-1 .552 0 1 .448 1 1z" fill="#fab400"/></g><g><path d="m41 13c-.552 0-1-.448-1-1v-2h2v2c0 .552-.448 1-1 1z" fill="#fab400"/></g><g><path d="m40 8v2h-2c-.552 0-1-.448-1-1 0-.552.448-1 1-1z" fill="#fab400"/></g><g><path d="m45 9c0 .552-.448 1-1 1h-2v-2h2c.552 0 1 .448 1 1z" fill="#fab400"/></g></g><g><g><path d="m26 26h-2v-2c0-.552.448-1 1-1 .552 0 1 .448 1 1z" fill="#fab400"/></g><g><path d="m25 31c-.552 0-1-.448-1-1v-2h2v2c0 .552-.448 1-1 1z" fill="#fab400"/></g><g><path d="m24 26v2h-2c-.552 0-1-.448-1-1 0-.552.448-1 1-1z" fill="#fab400"/></g><g><path d="m29 27c0 .552-.448 1-1 1h-2v-2h2c.552 0 1 .448 1 1z" fill="#fab400"/></g></g></g></g></svg>