<svg id="icons" enable-background="new 0 0 64 64" height="512" viewBox="0 0 64 64" width="512" xmlns="http://www.w3.org/2000/svg"><path d="m63 62c0 .551-.45 1-1 1h-60c-.55 0-1-.449-1-1v-60c0-.551.45-1 1-1h60c.55 0 1 .449 1 1z" fill="#87bcf4"/><path d="m48.581 18.881-17.881-17.881h-28.7c-.55 0-1 .449-1 1v28.699l17.881 17.881z" fill="#5d9cec"/><g fill="#f5f7fa"><path d="m7.994 22.982c-.553.002-1-.445-1-1v-4.012c0-.553.447-1 1-1s.999.447 1 1v4.012c0 .553-.447 1-1 1z"/><path d="m8.994 20.977h-2c-.553 0-1-.447-1-1s.448-1 1-1h2c.553 0 1 .447 1 1s-.447 1-1 1z"/><path d="m31.025 19.01c-.553-.002-1-.449-1-1v-4.014c0-.553.447-1 1-1s1 .447 1 1v4.014c0 .551-.447 1-1 1z"/><path d="m32.025 17.002h-2c-.553 0-.999-.447-1-1 0-.553.447-1 1-1h1.999c.554 0 1 .447 1.001 1 0 .553-.447 1-1 1z"/><path d="m19.041 33.004c-.553 0-1.005-.449-1.005-1.002 0-.551.441-1 .994-1h.011c.552 0 1 .449 1 1 0 .555-.448 1-1 1.002z"/><path d="m17.032 5.977c-.553 0-1.005-.447-1.004-1-.001-.553.441-1 .993-1h.011c.552 0 1 .447 1 1s-.448 1-1 1z"/></g><path d="m50.399 50.4c-.779.781-2.05.781-2.83 0l-11.299-11.31 2.83-2.818 11.3 11.299c.78.781.78 2.04-.001 2.829z" fill="#e6e9ed"/><path d="m40.513 33.434c.389.389.39 1.025.002 1.416l-.71.713c-.388.389-1.024 1.025-1.414 1.414l-1.412 1.408c-.39.387-1.027 1.023-1.416 1.412l-.706.705c-.389.389-1.025.389-1.414 0l-2.121-2.121c-.389-.389-.389-1.025 0-1.414l5.656-5.654c.389-.389 1.025-.389 1.414 0z" fill="#545c66"/><path d="m49.703 20.004c.389.389.389 1.025 0 1.414l-9.896 9.896c-.39.389-1.025 1.025-1.415 1.414l-5.655 5.654c-.39.389-1.026 1.025-1.415 1.414l-9.904 9.906c-.39.389-1.025.389-1.415 0l-1.416-1.416c-.389-.389-.389-1.025 0-1.414l28.286-28.285c.389-.389 1.025-.389 1.414 0z" fill="#656d78"/></svg>